<svg width="42" height="43" xmlns="http://www.w3.org/2000/svg"><path d="M22.161.75c4.33.005 5.093.033 7.093.125 2.195.102 3.694.454 5.006.97a10.1 10.1 0 013.653 2.403c1.147 1.159 1.852 2.321 2.38 3.692.51 1.325.858 2.84.958 5.059.093 2.071.12 2.829.124 7.502v2.182c-.004 4.673-.03 5.43-.124 7.502-.1 2.219-.449 3.734-.959 5.06-.527 1.37-1.232 2.532-2.379 3.691a10.1 10.1 0 01-3.653 2.404c-1.312.515-2.811.868-5.006.969-2.1.097-2.836.123-7.77.125h-1.468c-4.934-.002-5.67-.028-7.77-.125-2.195-.101-3.694-.454-5.006-.969a10.1 10.1 0 01-3.653-2.404c-1.147-1.159-1.852-2.321-2.38-3.692-.51-1.325-.858-2.84-.958-5.059-.087-1.92-.116-2.71-.123-6.537v-4.112C.133 15.71.162 14.92.25 13c.1-2.218.449-3.734.959-5.06.527-1.37 1.232-2.532 2.379-3.69A10.1 10.1 0 017.24 1.843c1.312-.513 2.81-.866 5.006-.968 2-.092 2.763-.12 7.093-.124zm.005 3.756h-2.832c-4.226.004-4.946.03-6.918.12-2.011.094-3.103.433-3.83.718-.963.379-1.65.83-2.372 1.56-.721.729-1.168 1.423-1.542 2.396-.283.734-.619 1.838-.71 3.87-.093 2.048-.118 2.76-.12 7.35v2.144c.002 4.59.027 5.302.12 7.35.091 2.032.427 3.136.71 3.87.374.973.82 1.667 1.542 2.397.722.729 1.41 1.18 2.372 1.559.727.285 1.819.625 3.83.717 1.972.091 2.692.117 6.918.121h2.832c4.226-.004 4.946-.03 6.918-.12 2.011-.093 3.103-.433 3.83-.718.963-.378 1.65-.83 2.372-1.56.721-.729 1.168-1.423 1.542-2.396.283-.734.619-1.838.71-3.87.095-2.098.119-2.794.12-7.693v-1.458c-.001-4.9-.025-5.595-.12-7.693-.091-2.032-.427-3.136-.71-3.87-.374-.973-.82-1.667-1.542-2.396-.722-.73-1.41-1.181-2.372-1.56-.727-.285-1.819-.624-3.83-.717-1.972-.091-2.692-.117-6.918-.121zm-1.416 6.383c5.85 0 10.591 4.792 10.591 10.703S26.6 32.295 20.75 32.295s-10.591-4.792-10.591-10.703c0-5.91 4.742-10.703 10.591-10.703zm0 3.756c-3.797 0-6.875 3.11-6.875 6.947s3.078 6.947 6.875 6.947 6.875-3.11 6.875-6.947-3.078-6.947-6.875-6.947zm11.01-6.68c1.367 0 2.475 1.12 2.475 2.502 0 1.38-1.108 2.5-2.475 2.5s-2.475-1.12-2.475-2.5c0-1.382 1.108-2.502 2.475-2.502z" fill="#FFF" fill-rule="evenodd"/></svg>