<svg width="232" height="56" xmlns="http://www.w3.org/2000/svg"><g transform="translate(.875 .5)" fill="none" fill-rule="evenodd"><text font-family="UTM-Hanzel, UTM Hanzel" font-size="41.25" fill="#ED3432"><tspan x="64.625" y="45">VietNam</tspan></text><circle fill="#FFF" fill-rule="nonzero" cx="27.483" cy="27.483" r="27.48"/><path d="M53.392 18.319a.776.776 0 00-.009-.024C49.866 8.378 40.82 1.082 29.95.113c4.206 2.306 5.434 9.611 6.51 18.206.735 5.87.74 12.339.014 18.217-1.067 8.64-2.3 15.998-6.524 18.313 10.89-.97 19.95-8.292 23.453-18.235l.026-.078a27.431 27.431 0 001.534-9.054c0-3.215-.557-6.297-1.57-9.163z" fill="#E12A28" fill-rule="nonzero"/><path d="M37.875 18.319c-1.076-8.595-3.72-15.9-7.926-18.206A27.96 27.96 0 0027.481 0C15.526 0 5.359 7.635 1.579 18.295A27.428 27.428 0 000 27.482c0 3.173.545 6.218 1.534 9.053l.026.078c3.766 10.687 13.946 18.35 25.92 18.35.833 0 1.656-.041 2.47-.114 4.223-2.316 6.872-9.673 7.939-18.314.726-5.878.72-12.346-.014-18.216z" fill="#ED3432" fill-rule="nonzero"/><path fill="#FDCE0C" fill-rule="nonzero" d="M27.235 13.397L30.5 23.444h10.565l-8.548 6.209 3.265 10.049-8.547-6.21-8.547 6.21 3.265-10.049-8.548-6.209H23.97z"/></g></svg>