<svg width="59" height="42" xmlns="http://www.w3.org/2000/svg"><path d="M23.436 28.303l-.002-16.447 15.705 8.252-15.703 8.195zM57.92 9.006s-.569-4.033-2.31-5.81C53.397.864 50.92.853 49.784.718 41.65.125 29.45.125 29.45.125h-.025S17.224.125 9.09.718C7.953.853 5.477.864 3.265 3.196 1.523 4.973.956 9.006.956 9.006S.375 13.744.375 18.48v4.442c0 4.738.581 9.474.581 9.474s.567 4.033 2.309 5.81c2.212 2.332 5.117 2.259 6.41 2.502 4.65.45 19.762.589 19.762.589s12.214-.018 20.348-.611c1.135-.137 3.613-.148 5.823-2.48 1.742-1.777 2.31-5.81 2.31-5.81s.582-4.736.582-9.474V18.48c0-4.736-.581-9.474-.581-9.474z" fill="#FFF" fill-rule="evenodd"/></svg>