<svg width="39" height="56" xmlns="http://www.w3.org/2000/svg"><g fill-rule="nonzero" fill="none"><path d="M38.692 19.696c0 4.301-3.017 11.39-8.967 21.07-4.351 7.077-8.765 13.049-8.809 13.11l-1.295 1.749-1.295-1.75c-.044-.06-4.457-6.032-8.808-13.11C3.568 31.088.55 23.998.55 19.696.55 9.182 9.105.626 19.621.626c10.516 0 19.07 8.556 19.07 19.07z" fill="#FF6311"/><path d="M30.526 19.4c0 6.014-4.891 10.906-10.905 10.906-6.014 0-10.905-4.892-10.905-10.906 0-6.013 4.891-10.905 10.905-10.905 6.014 0 10.905 4.892 10.905 10.905z" fill="#FFDBA9"/></g></svg>