<svg width="287" height="308" xmlns="http://www.w3.org/2000/svg"><g stroke="#FFF" stroke-width="5.5" fill="none" fill-rule="evenodd"><path d="M259.414 131.477c-6.277 2.897-12.94 4.683-19.603 6.277M233.244 139.154c-3.573.628-7.146 1.352-10.768 1.883M274.141 121.868a42.918 42.918 0 01-8.74 6.519M204.997 143.596l-20.424 2.752M177.909 147.314l-10.767 1.69M222.476 141.037l-10.815 1.593M282.205 86.282c1.303 6.712 2.076 13.713.482 20.473M280.466 113.08c-1.497 3.332-3.814 6.229-6.325 8.788M268.009 79.281c3.573-.145 7.436-.241 10.67 1.497M230.492 75.95c6.132 3.09 13.085 4.49 19.941 4.393M257.145 80.102c3.621-.242 7.242-.676 10.864-.821M220.062 62.671c.435 3.621 2.221 7.05 4.925 9.512M234.5 28.244c-1.787 6.663-5.216 12.747-9.416 18.203"/><path d="M221.317 52c-.869 1.593-1.303 3.428-1.351 5.215-.145 1.835-.145 3.621.096 5.456M231.264 11.44c1.883 3.091 3.38 6.52 3.718 10.14M225.035 2.46c2.125 2.945 4.346 5.842 6.23 8.98M149.808 152.48c-6.664 1.69-13.327 3.477-19.652 6.23M124.12 161.606c-1.545.918-3.235 1.69-4.732 2.753l-4.345 3.283M167.142 149.004c-3.573.676-7.194 1.256-10.72 2.028M99.833 176.43c-3.235 1.11-6.615 2.028-10.043 2.173-3.428.145-6.857.096-10.333.048M72.794 178.41l-10.961-.339M115.043 167.642c-2.753 2.366-5.794 4.394-9.03 6.084M44.209 177.927c-6.856.145-13.761.434-20.57 1.448M17.073 180.679c-3.525.87-7.001 2.076-10.043 4.152M61.833 178.071l-10.912-.193M8.092 199.558c4.587 5.118 9.995 9.464 15.451 13.617M28.951 217.182c2.945 2.125 5.939 4.201 8.981 6.229M7.03 184.831c-1.4 1.111-2.946 2.27-3.573 4.008-.628 1.738 0 3.67.772 5.263M52.755 233.02c5.843 3.67 11.734 7.194 17.624 10.719M76.173 247.12l9.464 5.455M37.932 223.411l9.126 5.987M101.04 261.218l18.107 9.85M125.086 274.255l9.657 5.07M85.637 252.575l9.512 5.36M150.387 287.485l18.397 9.32M174.819 299.797l9.802 4.83M134.743 279.325l9.657 5.07"/></g></svg>