<svg width="58" height="40" xmlns="http://www.w3.org/2000/svg"><g fill-rule="nonzero" fill="none"><path d="M55.872 6.25a7.147 7.147 0 00-5.028-5.028C46.38 0 28.524 0 28.524 0S10.666 0 6.202 1.175c-2.397.658-4.37 2.632-5.028 5.075C0 10.714 0 19.971 0 19.971s0 9.304 1.175 13.722a7.149 7.149 0 005.028 5.028c4.51 1.222 22.32 1.222 22.32 1.222s17.857 0 22.321-1.176a7.147 7.147 0 005.029-5.027c1.175-4.465 1.175-13.722 1.175-13.722s.046-9.304-1.176-13.768z" fill="red"/><path fill="#FFF" d="M22.838 28.524l14.849-8.553-14.85-8.552z"/></g></svg>